<?xml version="1.0" encoding="UTF-8"?><svg id="Pin" xmlns="http://www.w3.org/2000/svg" viewBox="0 0 360.07 374.73"><defs><style>.cls-1{fill:#6ec82d;}.cls-2{fill:#fff;stroke-width:3px;}.cls-2,.cls-3,.cls-4{stroke-miterlimit:10;}.cls-2,.cls-4{stroke:#231f20;}.cls-3{fill:#0078f5;stroke:#4860ac;}.cls-5{fill:#f67100;}.cls-4{fill:#231f20;}</style></defs><path id="Arrow" class="cls-5" d="M178.29,301.98c-11.19-7.26-23.34-16.05-35.82-26.64-16.93-14.36-30.63-28.75-41.53-41.71,8.81,18.64,20.9,40.41,37.5,63.19,13.55,18.58,27.3,33.98,39.86,46.5,13.26-12.84,28.18-29.21,42.81-49.5,15.72-21.81,27.08-42.57,35.29-60.19-10.78,13.08-24.67,27.83-42.21,42.44-12.56,10.46-24.75,18.99-35.89,25.92Z"/><path id="Point" class="cls-3" d="M290.39,85.17c-1.34-5.11-5.66-19.99-17.11-36-3.75-5.24-13.96-18.57-31.78-30C220.65,5.8,200.91,2.43,192.61,1.39c-24.66-3.08-44.24,2.49-54,6-26.53,9.54-42.23,26.03-47.33,31.78-6.98,7.86-22.28,27.28-27.11,56.44-4.24,25.63,1.81,45.39,6.22,59.78,8.37,27.3,21.76,45.3,32.22,59.11,0,0,21,27.66,54.22,52.22,6.79,5.02,7.66,5.73,13.11,10.06,2.58,2.05,5.48,4.56,8.64,4.47,2.59-.07,4.63-1.93,6-2.78,6.72-4.17,2.78-1.63,16.17-11.54,6.92-5.12,12.25-9.9,16.52-13.54,10.78-9.2,24.87-21.39,39.11-41.11,3.48-4.83,12.72-18.07,21.33-37.11,7.35-16.25,14.93-33.03,16-56.22.8-17.34-2.42-30.29-3.33-33.78ZM179.26,204.64c-48.05,0-87-38.95-87-87S131.22,30.64,179.26,30.64s87,38.95,87,87-38.95,87-87,87Z"/><g id="Sign"><rect id="Right_Leg" class="cls-4" x="213.18" y="114.19" width="2" height="51.78"/><rect id="Left_Leg" class="cls-4" x="143.18" y="114.19" width="2" height="51.78"/><rect id="Sign-2" class="cls-2" x="134.26" y="82.4" width="90" height="48.5"/></g><path id="Grass" class="cls-1" d="M163.08,193.65c-6.86-1.66-11.64-4.21-15.25-6.17-2.64-1.43-10.5-5.9-18.75-14.17-6.24-6.24-10.5-12.46-13.33-17.33,2.31-.3,5.44-.48,9.08,0,3.42.45,6.25,1.34,8.33,2.17-.54-1.53-1.22-3.18-2.08-4.92-1.51-3.05-3.19-5.57-4.75-7.58,1.49.29,3.67.89,6,2.25,2.87,1.68,4.68,3.76,5.67,5.08-3.14-5.64-6.28-11.28-9.42-16.92,10.34,6.7,14.26,12.29,15.83,16.33,0,0,2.49,6.4,7.38,8.98.26.14.59.27.95.19,1.22-.27.94-2.55,2.42-5.42,0,0,.17-.33,3-4.17.33,1.18.95,2.88,2.17,4.67,1.08,1.59,2.27,2.7,3.17,3.42-.14-1.94-.18-4.09-.08-6.42.14-3.32.57-6.29,1.08-8.83.78,2.18,1.97,4.88,3.83,7.75,1.6,2.47,3.28,4.43,4.75,5.92.36-2.03,1.07-4.72,2.5-7.67,1.18-2.43,2.52-4.34,3.68-5.75.13,4.03.27,8.06.4,12.08,1.13-2.15,2.73-4.74,5-7.42,2.69-3.18,5.45-5.44,7.67-7-.94,3.03-1.89,6.06-2.83,9.08l9.33-12.08c-1.1,2.67-2.18,5.65-3.17,8.92-.92,3.04-1.62,5.92-2.17,8.58.83-.25,2.16-.76,3.5-1.83,1.22-.98,1.98-2.03,2.42-2.75-.16,1.1-.27,2.59-.08,4.33.19,1.72.61,3.13,1,4.17.86-1.22,1.81-2.75,2.67-4.58.94-2.01,1.53-3.87,1.92-5.42-.11,1.68-.11,3.71.17,6,.32,2.61.9,4.83,1.5,6.58,1.48-2.54,3.58-5.61,6.5-8.75,3.38-3.63,6.78-6.18,9.5-7.92-1.22,4.86-2.44,9.72-3.67,14.58,3.93.14,6.77-.63,8.64-1.36,2.24-.87,3.22-1.74,5.56-2.39,2.84-.79,5.38-.6,7.06-.33-3.21,5.59-8.31,12.92-16.17,19.83-6.85,6.03-13.59,9.82-18.67,12.17-6.07,2.82-10.97,3.89-12.17,4.17-6.93,1.58-12.41,1.54-15.75,1.5-3.5-.04-8.32-.13-14.33-1.58Z"/></svg>